<mxfile host="app.diagrams.net" agent="Mozilla/5.0 (Windows NT 10.0; Win64; x64) AppleWebKit/537.36 (KHTML, like Gecko) Chrome/140.0.0.0 Safari/537.36" version="28.2.0">
  <diagram name="Page-1" id="F-k_rcpSAkG7vQuSkx5P">
    <mxGraphModel dx="1616" dy="321" grid="1" gridSize="10" guides="1" tooltips="1" connect="1" arrows="1" fold="1" page="1" pageScale="1" pageWidth="850" pageHeight="1100" math="0" shadow="0">
      <root>
        <mxCell id="0" />
        <mxCell id="1" parent="0" />
        <mxCell id="nd5Xag4mBQAPd9wCDUBt-5" style="edgeStyle=orthogonalEdgeStyle;rounded=0;orthogonalLoop=1;jettySize=auto;html=1;" edge="1" parent="1" source="nd5Xag4mBQAPd9wCDUBt-2" target="nd5Xag4mBQAPd9wCDUBt-3">
          <mxGeometry relative="1" as="geometry" />
        </mxCell>
        <mxCell id="nd5Xag4mBQAPd9wCDUBt-2" value="Token Holder" style="rounded=0;whiteSpace=wrap;html=1;fillColor=#CCFFCC;" vertex="1" parent="1">
          <mxGeometry y="180" width="120" height="20" as="geometry" />
        </mxCell>
        <mxCell id="nd5Xag4mBQAPd9wCDUBt-6" style="edgeStyle=orthogonalEdgeStyle;rounded=0;orthogonalLoop=1;jettySize=auto;html=1;entryX=0;entryY=0.5;entryDx=0;entryDy=0;" edge="1" parent="1" source="nd5Xag4mBQAPd9wCDUBt-3" target="nd5Xag4mBQAPd9wCDUBt-4">
          <mxGeometry relative="1" as="geometry">
            <mxPoint x="310" y="190" as="targetPoint" />
          </mxGeometry>
        </mxCell>
        <mxCell id="nd5Xag4mBQAPd9wCDUBt-3" value="Stake Tokens" style="rounded=0;whiteSpace=wrap;html=1;fillColor=#FF3F22;" vertex="1" parent="1">
          <mxGeometry x="170" y="180" width="90" height="20" as="geometry" />
        </mxCell>
        <mxCell id="nd5Xag4mBQAPd9wCDUBt-8" style="edgeStyle=orthogonalEdgeStyle;rounded=0;orthogonalLoop=1;jettySize=auto;html=1;entryX=0.5;entryY=0;entryDx=0;entryDy=0;" edge="1" parent="1" source="nd5Xag4mBQAPd9wCDUBt-4" target="nd5Xag4mBQAPd9wCDUBt-7">
          <mxGeometry relative="1" as="geometry" />
        </mxCell>
        <mxCell id="nd5Xag4mBQAPd9wCDUBt-4" value="Selected as Validator" style="rounded=0;whiteSpace=wrap;html=1;fillColor=#FFFFCC;" vertex="1" parent="1">
          <mxGeometry x="320" y="180" width="120" height="20" as="geometry" />
        </mxCell>
        <mxCell id="nd5Xag4mBQAPd9wCDUBt-10" style="edgeStyle=orthogonalEdgeStyle;rounded=0;orthogonalLoop=1;jettySize=auto;html=1;" edge="1" parent="1" source="nd5Xag4mBQAPd9wCDUBt-7" target="nd5Xag4mBQAPd9wCDUBt-9">
          <mxGeometry relative="1" as="geometry" />
        </mxCell>
        <mxCell id="nd5Xag4mBQAPd9wCDUBt-7" value="Propose Block" style="rounded=0;whiteSpace=wrap;html=1;fillColor=#CCE5FF;" vertex="1" parent="1">
          <mxGeometry x="320" y="220" width="120" height="20" as="geometry" />
        </mxCell>
        <mxCell id="nd5Xag4mBQAPd9wCDUBt-15" style="edgeStyle=orthogonalEdgeStyle;rounded=0;orthogonalLoop=1;jettySize=auto;html=1;entryX=1;entryY=0.5;entryDx=0;entryDy=0;" edge="1" parent="1" source="nd5Xag4mBQAPd9wCDUBt-9" target="nd5Xag4mBQAPd9wCDUBt-11">
          <mxGeometry relative="1" as="geometry" />
        </mxCell>
        <mxCell id="nd5Xag4mBQAPd9wCDUBt-9" value="Block Validation" style="rounded=0;whiteSpace=wrap;html=1;fillColor=#FFCCCC;" vertex="1" parent="1">
          <mxGeometry x="170" y="220" width="90" height="20" as="geometry" />
        </mxCell>
        <mxCell id="nd5Xag4mBQAPd9wCDUBt-16" style="edgeStyle=orthogonalEdgeStyle;rounded=0;orthogonalLoop=1;jettySize=auto;html=1;entryX=0.5;entryY=0;entryDx=0;entryDy=0;" edge="1" parent="1" source="nd5Xag4mBQAPd9wCDUBt-11" target="nd5Xag4mBQAPd9wCDUBt-13">
          <mxGeometry relative="1" as="geometry" />
        </mxCell>
        <mxCell id="nd5Xag4mBQAPd9wCDUBt-11" value="Block Finalized" style="rounded=0;whiteSpace=wrap;html=1;fillColor=#FF6666;" vertex="1" parent="1">
          <mxGeometry y="220" width="120" height="20" as="geometry" />
        </mxCell>
        <mxCell id="nd5Xag4mBQAPd9wCDUBt-13" value="Earn Reward" style="rounded=0;whiteSpace=wrap;html=1;fillColor=#CCFFCC;" vertex="1" parent="1">
          <mxGeometry y="260" width="120" height="20" as="geometry" />
        </mxCell>
        <mxCell id="nd5Xag4mBQAPd9wCDUBt-17" value="&lt;font style=&quot;font-size: 10px;&quot;&gt;1. Token holder stakes their token. Put tokens as collateral&lt;/font&gt;" style="text;html=1;align=center;verticalAlign=middle;resizable=0;points=[];autosize=1;strokeColor=none;fillColor=none;" vertex="1" parent="1">
          <mxGeometry x="-10" y="290" width="280" height="30" as="geometry" />
        </mxCell>
        <mxCell id="nd5Xag4mBQAPd9wCDUBt-18" value="&lt;font style=&quot;font-size: 10px;&quot;&gt;2. They become selected as Validator because of propabilities&amp;nbsp;&lt;/font&gt;" style="text;html=1;align=center;verticalAlign=middle;resizable=0;points=[];autosize=1;strokeColor=none;fillColor=none;" vertex="1" parent="1">
          <mxGeometry x="-10" y="310" width="300" height="30" as="geometry" />
        </mxCell>
        <mxCell id="nd5Xag4mBQAPd9wCDUBt-19" value="&lt;font style=&quot;font-size: 10px;&quot;&gt;3. Validator creates a new block and broadcasts it to the network&amp;nbsp;&amp;nbsp;&lt;/font&gt;" style="text;html=1;align=center;verticalAlign=middle;resizable=0;points=[];autosize=1;strokeColor=none;fillColor=none;" vertex="1" parent="1">
          <mxGeometry x="-10" y="330" width="310" height="30" as="geometry" />
        </mxCell>
        <mxCell id="nd5Xag4mBQAPd9wCDUBt-20" value="&lt;font style=&quot;font-size: 10px;&quot;&gt;4. Validator earns reward&amp;nbsp;&lt;/font&gt;" style="text;html=1;align=center;verticalAlign=middle;resizable=0;points=[];autosize=1;strokeColor=none;fillColor=none;" vertex="1" parent="1">
          <mxGeometry x="-10" y="350" width="140" height="30" as="geometry" />
        </mxCell>
        <mxCell id="nd5Xag4mBQAPd9wCDUBt-21" value="&lt;font style=&quot;font-size: 18px;&quot;&gt;Proof of Stake (Pos)&amp;nbsp;&lt;/font&gt;" style="text;html=1;align=center;verticalAlign=middle;resizable=0;points=[];autosize=1;strokeColor=none;fillColor=none;" vertex="1" parent="1">
          <mxGeometry x="70" y="140" width="190" height="40" as="geometry" />
        </mxCell>
        <mxCell id="nd5Xag4mBQAPd9wCDUBt-22" value="&lt;b&gt;Figure 1.6: Proof of Stake (PoS)&lt;/b&gt;" style="text;html=1;align=center;verticalAlign=middle;resizable=0;points=[];autosize=1;strokeColor=none;fillColor=none;" vertex="1" parent="1">
          <mxGeometry x="110" y="370" width="200" height="30" as="geometry" />
        </mxCell>
      </root>
    </mxGraphModel>
  </diagram>
</mxfile>
